<svg xmlns="http://www.w3.org/2000/svg" width="227.029" height="196.841" viewBox="0 0 227.029 196.841">
  <g id="_2606569_5904" data-name="2606569_5904" transform="translate(-85.971 -81.457)">
    <g id="Object" transform="translate(85.971 81.457)">
      <g id="Grupo_100" data-name="Grupo 100">
        <path id="Trazado_32" data-name="Trazado 32" d="M711.918,298.705l-.417-.628-14.168-14.763a2.348,2.348,0,0,1,1.242-3.539,14.934,14.934,0,0,0,5.948-3.475,14.477,14.477,0,1,0-20.01-20.925,14.767,14.767,0,0,0-3.733,5.783,2.349,2.349,0,0,1-3.589,1.082l-14.119-14.819-.612-.441a2.336,2.336,0,0,0-3.24.044l-16.375,15.707a2.209,2.209,0,0,1-2.327-1.58c-1.391-4.812-5.4-8.967-12.183-10.279a5.881,5.881,0,0,0-2.139-.018c-13.9,2.445-17.482,16.9-10.01,24.738a13.629,13.629,0,0,0,5.526,3.525,2.189,2.189,0,0,1,1.393,2.544l-16.469,15.8a2.336,2.336,0,0,0-.12,3.315L621.411,316.3l.265.205.089.093a2.347,2.347,0,0,0,3.934-1.195c1.365-5.247,5.7-9.93,12.944-11.355a14.474,14.474,0,0,1,4.042.269,14.5,14.5,0,0,1,11.055,11.572,14.2,14.2,0,0,1,.1,4.048c-1.756,7.171-6.63,11.293-11.932,12.412a2.352,2.352,0,0,0-1.366,3.881l.089.093.2.28,14.836,15.571a2.346,2.346,0,0,0,3.32.031L675.5,336.458a2.2,2.2,0,0,1,2.482,1.512,13.666,13.666,0,0,0,3.277,5.684c7.5,7.816,22.087,4.888,25.159-8.887a5.857,5.857,0,0,0,.075-2.139c-1.007-6.842-4.98-11.033-9.717-12.636A2.2,2.2,0,0,1,695.3,317.6l16.423-15.653A2.352,2.352,0,0,0,711.918,298.705Z" transform="translate(-485.447 -246.348)" fill="#cdd589"/>
        <path id="Trazado_33" data-name="Trazado 33" d="M559.109,619.78h.125l.34.05,21.506.093a2.352,2.352,0,0,0,2.324-2.375l.093-22.829a2.2,2.2,0,0,1,2.808-.739,13.688,13.688,0,0,0,6.367,1.573c10.83.013,18.828-12.537,11.021-24.3a5.985,5.985,0,0,0-1.488-1.536c-5.633-4.011-11.4-4.049-15.841-1.742a2.21,2.21,0,0,1-2.747-.6l.091-22.686a2.338,2.338,0,0,0-2.2-2.375l-.745-.143-20.462-.012a2.343,2.343,0,0,1-1.687-3.346,14.938,14.938,0,0,0,1.608-6.691,14.476,14.476,0,1,0-28.951-.074,14.8,14.8,0,0,0,1.589,6.7,2.355,2.355,0,0,1-1.713,3.341l-20.469-.093-.739.136a2.309,2.309,0,0,0-1.98,1.368,3.441,3.441,0,0,1,.2,1.139l-.039,23.424-1.283-.255a2.116,2.116,0,0,1-1.882-.037l-.4-.174a15.876,15.876,0,0,0-2.133.162l-.187.025-.187-.031a12.525,12.525,0,0,0-2.224-.28,13.112,13.112,0,0,0-12.82,11.666,13.425,13.425,0,0,0-.123,1.729,15.813,15.813,0,0,0,2,7.444c.294.553.587,1.113.956,1.673a4.716,4.716,0,0,0,1.194,1.224,15,15,0,0,0,8.727,3,14.5,14.5,0,0,0,2.167-.18l.187-.037.187.031c.6.1,1.064.192,1.5.243.363-.149.729-.3,1.082-.486a2.1,2.1,0,0,1,2.171.156l1.025-.206-.037,23.78a3.776,3.776,0,0,1-.123.89,2.292,2.292,0,0,0,2.059,1.349l21.512.014.329-.044h.13a2.348,2.348,0,0,0,1.863-3.669c-2.838-4.614-3.2-10.982.786-17.194a14.378,14.378,0,0,1,2.991-2.73,14.511,14.511,0,0,1,16,.038,14.5,14.5,0,0,1,2.98,2.748c3.961,6.23,3.551,12.6.688,17.2A2.353,2.353,0,0,0,559.109,619.78Z" transform="translate(-407.882 -423.083)" fill="#677483"/>
        <path id="Trazado_34" data-name="Trazado 34" d="M335.1,396.139l-.048.125-.021.045-.123.49a1.228,1.228,0,0,0,.932,1.15l20.312-.037a3.171,3.171,0,0,1,.79.143v-.006a3.389,3.389,0,0,1,1.9.684l.13-.641.093-22.828a2.2,2.2,0,0,1,2.808-.74,13.659,13.659,0,0,0,6.364,1.573c10.836.013,18.83-12.537,11.023-24.3a6.062,6.062,0,0,0-1.486-1.536c-5.631-4.012-11.4-4.049-15.846-1.741a2.21,2.21,0,0,1-2.746-.6l.1-22.685a2.348,2.348,0,0,0-2.206-2.375l-.744-.142-20.462-.014a2.344,2.344,0,0,1-1.692-3.345,14.9,14.9,0,0,0,1.616-6.693,14.477,14.477,0,1,0-28.954-.074,14.829,14.829,0,0,0,1.589,6.7,2.344,2.344,0,0,1-1.708,3.333l-20.471-.087-.74.136a2.341,2.341,0,0,0-2.214,2.371l-.02,22.685a2.206,2.206,0,0,1-2.749.585c-4.432-2.326-10.2-2.32-15.855,1.667a6.017,6.017,0,0,0-1.5,1.53c-7.87,11.722.071,24.309,10.9,24.352a13.58,13.58,0,0,0,6.37-1.543,2.191,2.191,0,0,1,2.8.76l-.018,22.828a2.4,2.4,0,0,0,.157.809,3.419,3.419,0,0,1,1.89-.665v.006a3.154,3.154,0,0,1,.792-.143l20.314.037a1.217,1.217,0,0,0,.927-1.143l-.119-.5-.023-.056-.026-.056-.027-.069a15.943,15.943,0,0,1-1.649-6.965h0v-.118a16.027,16.027,0,0,1,.694-4.44,15.328,15.328,0,0,1,14.617-11.273l.368.006.31-.006A15.332,15.332,0,0,1,336.068,384.6a16.048,16.048,0,0,1,.688,4.446v.031A15.91,15.91,0,0,1,335.1,396.139Z" transform="translate(-259.999 -280.042)" fill="#677483"/>
        <path id="Trazado_35" data-name="Trazado 35" d="M344.589,570.659a15.017,15.017,0,0,1,9.992-3.861l.006,1.144V566.8a14.048,14.048,0,0,1,2.5.292,19.309,19.309,0,0,1,2.313-.173q.568,0,1.142.054l.029-20.657a1.162,1.162,0,0,0-1.009-1.187l-.077-.02-.176-.006-.169-.061-.343-.069-20.565.036-.1-.018a3.518,3.518,0,0,1-2.866-3.164l-.057-.311a3.384,3.384,0,0,1,.345-1.462h-.011l.046-.118.026-.037a13.663,13.663,0,0,0,1.439-6.1v-.031a13.73,13.73,0,0,0-.6-3.793,13,13,0,0,0-12.364-9.583l-.3.006h-.066l-.311-.006a12.433,12.433,0,0,0-7.365,2.438,13.443,13.443,0,0,0-5,7.144,15.533,15.533,0,0,0-.459,2.146,10.888,10.888,0,0,0-.148,1.635v.044a13.548,13.548,0,0,0,1.449,6.094l.028.051.02.056.029.069-.009.005a3.489,3.489,0,0,1,.335,1.45l-.053.28a3.516,3.516,0,0,1-2.866,3.19l-.1.018-20.565-.037-.167.031-.18.037-.167.061-.18.006a1.177,1.177,0,0,0-1.091,1.2l.039,23.107-.269.33a3.447,3.447,0,0,1-2.64,1.263,3.312,3.312,0,0,1-1.555-.386A12.555,12.555,0,0,0,276.7,569.2a15.158,15.158,0,0,0-8.818,3.053,4.652,4.652,0,0,0-1.194,1.225,16.33,16.33,0,0,0-2.954,9.111,13.182,13.182,0,0,0,12.93,13.394h.023a12.507,12.507,0,0,0,5.813-1.424,3.289,3.289,0,0,1,1.507-.373,3.463,3.463,0,0,1,2.793,1.473l.222.311.036,23.2a1.176,1.176,0,0,0,1.139,1.207l21.425-.037.34-.051h.212a1.01,1.01,0,0,0,.76-.323,1.285,1.285,0,0,0,.306-.84l-.2-.715a15.921,15.921,0,0,1-2.373-8.4,18.65,18.65,0,0,1,3.112-10.057l.041-.061.041-.049a15.646,15.646,0,0,1,3.238-2.961l.029-.019.025-.018a17.221,17.221,0,0,1,8.591-2.581h.036a17.189,17.189,0,0,1,8.585,2.581l.029.013.03.025a15.583,15.583,0,0,1,3.235,2.961l.045.056.039.054a18.616,18.616,0,0,1,3.108,10.063,15.906,15.906,0,0,1-2.372,8.4l-.206.708a1.271,1.271,0,0,0,.311.84,1,1,0,0,0,.76.323h.206l.082.013.256.037,21.432.037a1.18,1.18,0,0,0,1.141-1.206l.037-20.951a11.663,11.663,0,0,1-1.5.107h-.007a11.946,11.946,0,0,1-2.169-.3,15.428,15.428,0,0,1-2.292.192,17.288,17.288,0,0,1-9.72-3.2l-.368-.224a7.256,7.256,0,0,1-1.783-1.841,20.249,20.249,0,0,1-2.617-5.559c-.167-.577-.294-1.157-.4-1.728a16.787,16.787,0,0,1-.327-3.129A15.86,15.86,0,0,1,344.589,570.659Z" transform="translate(-262.432 -424.966)" fill="#677483"/>
      </g>
    </g>
  </g>
</svg>
